<?xml version="1.0" encoding="utf-8"?>
<!-- Uploaded to: SVG Repo, www.svgrepo.com, Generator: SVG Repo Mixer Tools -->
<svg width="800px" height="800px" viewBox="0 0 1024 1024" class="icon"  version="1.1" xmlns="http://www.w3.org/2000/svg"><path d="M850.24 895.296a62.976 62.976 0 0 1-62.144 63.808H252.352a62.976 62.976 0 0 1-62.144-63.808V138.432c0-35.264 27.84-63.744 62.144-63.744h535.744c34.368 0 62.144 28.48 62.144 63.744v756.864z" fill="#82B24D" /><path d="M244.672 122.944h44.864v44.864h-44.864zM759.616 122.944h44.928v44.864h-44.928zM244.672 871.296h44.864v44.928h-44.864zM759.616 871.296h44.928v44.928h-44.928z" fill="#1D6540" /><path d="M405.952 314.816a115.328 114.304 90 1 0 228.608 0 115.328 114.304 90 1 0-228.608 0Z" fill="#C2CBCF" /><path d="M520.256 445.056a129.92 129.92 0 0 1-129.344-130.24c0-71.872 57.984-130.368 129.344-130.368s129.344 58.496 129.344 130.368a129.984 129.984 0 0 1-129.344 130.24z m0-230.528c-54.72 0-99.328 44.992-99.328 100.288s44.544 100.288 99.328 100.288 99.328-44.992 99.328-100.288-44.608-100.288-99.328-100.288z" fill="#384E4D" /><path d="M520.256 314.816m-36.8 0a36.8 36.8 0 1 0 73.6 0 36.8 36.8 0 1 0-73.6 0Z" fill="#435861" /><path d="M345.6 683.264a176.256 174.656 90 1 0 349.312 0 176.256 174.656 90 1 0-349.312 0Z" fill="#C2CBCF" /><path d="M520.256 874.432c-104.576 0-189.632-85.824-189.632-191.168 0-105.408 85.12-191.232 189.632-191.232 104.64 0 189.632 85.824 189.632 191.232 0 105.344-84.992 191.168-189.632 191.168z m0-352.448c-88 0-159.68 72.32-159.68 161.28 0 88.832 71.616 161.216 159.68 161.216 88 0 159.68-72.384 159.68-161.216 0-88.96-71.68-161.28-159.68-161.28z" fill="#384E4D" /><path d="M464 683.264a56.64 56.256 90 1 0 112.512 0 56.64 56.256 90 1 0-112.512 0Z" fill="#435861" /></svg>