<?xml version="1.0" encoding="utf-8"?>
<!-- Uploaded to: SVG Repo, www.svgrepo.com, Generator: SVG Repo Mixer Tools -->
<svg width="800px" height="800px" viewBox="0 -56 1136 1136" class="icon"  version="1.1" xmlns="http://www.w3.org/2000/svg"><path d="M572.258462 102.203077s11.224615-40.369231-14.966154-41.550769c-19.298462-0.984615-18.510769 22.646154-16.935385 34.658461 0.590769 3.741538-2.166154 7.286154-5.907692 7.68-31.310769 3.938462-157.144615 28.750769-199.286154 177.821539-0.196923 0.590769-0.196923 1.378462-0.196923 1.96923v0.984616c0 3.741538-2.953846 6.892308-6.695385 6.892308-16.935385 0.196923-60.061538 6.301538-57.107692 63.606153v0.787693c0.590769 4.332308 7.876923 41.747692 58.88 46.08 2.756923 0.196923 5.12 2.363077 5.907692 5.12 8.073846 28.947692 58.486154 180.184615 243.2 182.547692 0 0 187.273846-2.56 223.901539-180.381538 0.590769-3.150769 3.347692-5.513846 6.498461-5.513847 14.769231-0.393846 55.532308-6.301538 63.409231-56.32 0.196923-0.787692 0.196923-1.378462 0-2.166153-1.181538-7.876923-10.043077-58.092308-59.076923-55.335385-3.347692 0.196923-6.301538-1.969231-7.089231-5.12-7.483077-30.916923-52.184615-175.655385-227.643077-181.563077" fill="#FFC0A9" /><path d="M487.187692 316.849231m-28.16 0a28.16 28.16 0 1 0 56.32 0 28.16 28.16 0 1 0-56.32 0Z" fill="#493B4E" /><path d="M637.44 316.849231m-28.16 0a28.16 28.16 0 1 0 56.32 0 28.16 28.16 0 1 0-56.32 0Z" fill="#493B4E" /><path d="M475.372308 397.981538h179.003077s-12.603077 83.692308-84.086154 84.676924-94.916923-84.676923-94.916923-84.676924z" fill="#493B4E" /><path d="M809.747692 523.618462l-216.418461 153.403076L809.747692 862.523077s42.535385-27.766154 49.427693-176.443077-49.427692-162.461538-49.427693-162.461538z" fill="#FFC0A9" /><path d="M808.369231 882.806154L567.138462 675.84 806.4 506.092308l7.286154 1.772307c7.089231 1.772308 69.12 21.661538 61.636923 179.003077-7.089231 152.615385-51.593846 185.895385-56.713846 189.243077l-10.24 6.695385z m-188.652308-204.603077l188.455385 161.673846c11.027692-16.738462 30.326154-59.076923 34.855384-154.584615 4.726154-100.824615-20.873846-133.513846-32.098461-142.769231l-191.212308 135.68z" fill="#493B4E" /><path d="M336.738462 521.452308l440.516923 373.76s-32.886154 70.301538-120.91077 69.316923-183.335385 0-183.335384 0-185.895385-33.476923-182.547693-239.655385c3.347692-206.572308 46.276923-203.421538 46.276924-203.421538z" fill="#FFC0A9" /><path d="M471.433846 980.676923l-1.575384-0.196923c-1.969231-0.393846-50.806154-9.452308-99.249231-45.489231-45.095385-33.476923-98.461538-97.083077-96.492308-210.510769 1.969231-115.396923 16.344615-186.289231 42.535385-210.313846 9.452308-8.664615 17.92-9.058462 21.070769-8.861539l5.316923 0.393847 453.907692 385.181538-5.316923 11.224615c-1.575385 3.347692-38.4 79.556923-135.68 78.769231-86.843077-0.787692-182.153846 0-183.138461 0l-1.378462-0.196923z m98.855385-32.886154c27.175385 0 57.107692 0 86.055384 0.393846h1.378462c56.123077 0 86.449231-32.492308 98.461538-49.624615L335.556923 541.538462c-8.467692 11.815385-26.781538 52.381538-28.947692 183.335384-1.378462 80.147692 26.781538 141.981538 83.495384 183.926154 38.4 28.356923 76.8 37.612308 84.48 39.384615 8.270769 0 47.458462-0.393846 95.704616-0.393846zM889.501538 343.630769c-0.196923-1.575385-4.135385-36.824615-29.735384-57.304615-9.846154-7.876923-21.464615-12.406154-34.461539-13.587692-2.756923-0.196923-4.923077-2.166154-5.710769-4.726154-5.710769-18.510769-17.132308-48.64-38.793846-79.36-30.129231-42.535385-86.252308-93.538462-183.729231-101.809231-3.347692-0.196923-6.104615-2.953846-6.301538-6.301539-0.393846-7.876923-2.363077-16.344615-7.286154-23.236923-4.135385-5.710769-11.815385-12.406154-25.206154-13.193846-10.633846-0.590769-19.692308 3.347692-25.993846 10.830769-6.301538 7.68-8.467692 18.116923-8.664615 27.372308 0 3.150769-2.363077 5.907692-5.513847 6.498462-17.132308 3.347692-42.141538 10.24-69.12 24.024615-43.52 22.252308-100.430769 67.544615-127.606153 157.341539-0.787692 2.56-2.756923 4.332308-5.513847 4.726153-12.209231 1.772308-27.569231 6.498462-39.975384 18.116923-15.36 14.375385-22.252308 35.249231-20.873846 62.03077v0.984615c2.166154 18.116923 18.116923 51.003077 63.015384 59.273846 2.363077 0.393846 4.529231 2.166154 5.316923 4.529231 6.104615 18.510769 19.101538 51.003077 44.307693 83.692308 34.658462 45.292308 99.446154 99.446154 211.495384 101.021538h0.393846c2.166154 0 51.790769-0.984615 106.338462-25.6 48.049231-21.661538 108.110769-66.166154 130.56-155.963077 0.590769-2.56 2.756923-4.726154 5.513846-5.12 26.584615-4.135385 60.258462-21.661538 67.347692-70.301538l0.196923-1.969231v-1.969231z m-32.68923 2.953846c-8.073846 41.747692-46.473846 40.172308-51.003077 39.975385l-8.467693-0.787692c-3.544615-0.393846-6.695385 2.166154-7.286153 5.513846l-1.575385 8.270769c-30.72 166.596923-199.68 172.504615-209.132308 172.701539-188.258462-2.56-227.052308-167.581538-228.627692-174.473847l-1.575385-7.08923c-0.590769-2.953846-3.347692-5.316923-6.301538-5.316923l-7.089231-0.393847c-39.975385-1.772308-47.064615-26.190769-48.246154-31.704615 0-0.393846-0.196923-0.787692-0.196923-0.984615-0.590769-15.950769 2.953846-27.963077 10.633846-35.249231 12.996923-12.406154 35.052308-10.24 35.052308-10.24l10.436923 1.181538c4.135385 0.393846 7.68-2.756923 7.68-6.892307v-16.344616c0-0.590769 0-1.378462 0.196923-1.969231 45.292308-154.978462 185.107692-164.233846 191.015385-164.627692l3.938461-0.196923 46.473847 1.181539v-0.196924c167.975385 13.784615 198.301538 166.4 199.483076 173.095385l1.575385 8.861539c0.590769 3.544615 3.938462 6.104615 7.68 5.513846l8.861539-1.181539c12.012308-1.575385 21.464615 0.393846 28.947692 6.301539 11.618462 9.058462 15.950769 25.206154 17.329231 32.098461 0.393846 1.181538 0.393846 1.969231 0.196923 2.953846z" fill="#493B4E" /></svg>