<?xml version="1.0" encoding="utf-8"?>
<!-- Uploaded to: SVG Repo, www.svgrepo.com, Generator: SVG Repo Mixer Tools -->
<svg width="800px" height="800px" viewBox="0 0 1024 1024" class="icon"  version="1.1" xmlns="http://www.w3.org/2000/svg"><path d="M756.883911 282.669511v552.174933c-42.689422 0-77.266489 34.531556-77.266489 77.118578H414.981689c0-42.587022-34.6112-77.118578-77.266489-77.118578V282.669511h419.168711z" fill="#FFCA6C" /><path d="M435.529956 282.669511v629.293511h-20.548267c0-42.587022-34.6112-77.118578-77.266489-77.118578V282.669511h97.814756z" fill="#E5B05C" /><path d="M337.7152 285.275022a71.918933 71.918933 0 0 1-28.785778-57.594311c0-36.829867 27.704889-67.1744 63.442489-71.463822a48.799289 48.799289 0 0 1 73.898667-50.858667 72.135111 72.135111 0 0 1 62.486755-35.999289c14.176711 0 27.397689 4.073244 38.559289 11.138845a71.68 71.68 0 0 1 38.513778-11.138845 72.0896 72.0896 0 0 1 62.486756 35.999289 48.810667 48.810667 0 0 1 73.910044 50.858667c35.760356 4.289422 63.453867 34.633956 63.453867 71.463822a71.896178 71.896178 0 0 1-28.808534 57.594311" fill="#E6E6E6" /><path d="M426.769067 227.680711c0-36.829867 27.704889-67.1744 63.442489-71.463822a48.799289 48.799289 0 0 1 73.898666-50.858667 72.328533 72.328533 0 0 1 42.097778-33.052444 72.0896 72.0896 0 0 0-58.902756 8.192 71.793778 71.793778 0 0 0-38.559288-11.138845 72.112356 72.112356 0 0 0-62.486756 35.999289 48.799289 48.799289 0 0 0-73.898667 50.858667c-35.7376 4.289422-63.442489 34.633956-63.442489 71.463822 0 23.529244 11.298133 44.430222 28.785778 57.594311h117.839645a71.941689 71.941689 0 0 1-28.7744-57.594311z" fill="#CCCCCC" /><path d="M337.7152 285.263644h419.168711v69.677512H337.7152z" fill="#E6E6E6" /><path d="M337.7152 285.263644h97.814756v69.677512h-97.814756z" fill="#CCCCCC" /><path d="M252.757333 336.645689v304.583111a112.048356 112.048356 0 0 1-64.512-101.421511V410.544356c0-20.593778 8.351289-39.241956 21.890845-52.736a74.456178 74.456178 0 0 1 42.621155-21.162667z" fill="#E6E6E6" /><path d="M709.279289 587.355022c-8.169244 0-14.791111-6.599111-14.791111-14.756978V339.717689c0-8.146489 6.621867-14.756978 14.791111-14.756978s14.791111 6.610489 14.791111 14.756978v232.880355c0 8.157867-6.621867 14.756978-14.791111 14.756978z" fill="#FFFFFF" /><path d="M756.872533 411.500089c-8.169244 0-14.791111 6.610489-14.791111 14.756978v395.025066a92.16 92.16 0 0 0-76.071822 75.923911H652.515556a14.768356 14.768356 0 1 0 0 29.513956h27.090488c8.157867 0 14.779733-6.610489 14.779734-14.756978 0-34.383644 28.023467-62.338844 62.475378-62.338844a14.791111 14.791111 0 0 0 14.791111-14.768356V426.268444a14.756978 14.756978 0 0 0-14.779734-14.768355zM491.167289 388.369067c-8.169244 0-14.791111 6.610489-14.791111 14.756977v280.098134c0 39.037156 31.812267 70.781156 70.917689 70.781155s70.917689-31.744 70.917689-70.781155v-99.7376c0-8.157867-6.621867-14.756978-14.802489-14.756978-8.157867 0-14.779733 6.599111-14.779734 14.756978v99.7376a41.358222 41.358222 0 0 1-82.693689 0V403.126044a14.7456 14.7456 0 0 0-14.768355-14.756977z" fill="" /><path d="M603.420444 543.835022c8.180622 0 14.791111-6.610489 14.791112-14.756978v-125.952c0-8.146489-6.610489-14.756978-14.791112-14.756977-8.169244 0-14.779733 6.610489-14.779733 14.756977v125.952c0 8.146489 6.621867 14.756978 14.779733 14.756978zM659.057778 388.357689c-8.169244 0-14.791111 6.610489-14.791111 14.756978v280.098133c0 18.898489 7.3728 36.681956 20.764444 50.028089a70.428444 70.428444 0 0 0 50.153245 20.753067 14.779733 14.779733 0 1 0 0-29.525334 41.051022 41.051022 0 0 1-29.229512-12.0832 40.925867 40.925867 0 0 1-12.105955-29.172622V403.114667c0-8.146489-6.621867-14.756978-14.791111-14.756978zM420.738844 683.224178c0 22.755556-18.5344 41.2672-41.324088 41.2672a14.768356 14.768356 0 1 0 0 29.513955c39.094044 0 70.894933-31.755378 70.894933-70.781155V644.437333a14.779733 14.779733 0 0 0-29.570845 0v38.786845zM435.529956 604.7744c8.169244 0 14.779733-6.610489 14.779733-14.756978V403.126044a14.791111 14.791111 0 1 0-29.570845 0v186.902756c0 8.135111 6.621867 14.7456 14.791112 14.7456z" fill="" /><path d="M800.472178 227.680711a86.812444 86.812444 0 0 0-62.520889-83.273955 63.658667 63.658667 0 0 0-84.673422-57.7536A87.324444 87.324444 0 0 0 585.8304 54.613333a86.6304 86.6304 0 0 0-38.525156 8.988445 86.766933 86.766933 0 0 0-38.547911-8.988445 87.381333 87.381333 0 0 0-67.447466 32.039823 63.613156 63.613156 0 0 0-84.673423 57.776355 87.04 87.04 0 0 0-26.191644 12.743111 14.7456 14.7456 0 0 0-3.401956 20.593778 14.802489 14.802489 0 0 0 20.627912 3.390578 57.412267 57.412267 0 0 1 26.464711-10.285511 14.779733 14.779733 0 0 0 12.731733-17.521778 34.781867 34.781867 0 0 1-0.705422-6.781156 34.076444 34.076444 0 0 1 34.065066-33.9968c6.394311 0 12.674844 1.820444 18.1248 5.267911a14.791111 14.791111 0 0 0 20.707556-5.063111 57.6512 57.6512 0 0 1 49.686756-28.637866c10.899911 0 21.492622 3.060622 30.628977 8.829155 4.846933 3.060622 11.013689 3.060622 15.849245 0a57.127822 57.127822 0 0 1 30.594844-8.829155c20.400356 0 39.446756 10.968178 49.686756 28.637866a14.825244 14.825244 0 0 0 20.707555 5.063111 33.905778 33.905778 0 0 1 18.136178-5.267911 34.065067 34.065067 0 0 1 33.371022 40.675556 14.7456 14.7456 0 0 0 12.708978 17.635555 57.298489 57.298489 0 0 1 50.449067 56.820623c0 15.314489-5.950578 29.582222-16.554667 40.2432H340.263822a56.706844 56.706844 0 0 1-16.543289-40.2432c0-4.7104 0.568889-9.398044 1.695289-13.915023a14.791111 14.791111 0 0 0-28.694755-7.133866 87.267556 87.267556 0 0 0-2.582756 21.060266c0 24.951467 10.422044 48.048356 28.785778 64.500623v52.064711a89.270044 89.270044 0 0 0-72.715378-22.1184c-43.326578 6.212267-76.743111 43.485867-76.743111 88.416711v129.262933c0 49.959822 29.525333 95.4368 75.218489 115.848534l73.910044 32.995555a55.899022 55.899022 0 0 1-55.512177 49.732267 14.756978 14.756978 0 1 0 0 29.513955 85.105778 85.105778 0 0 0 55.842133-20.821333v87.790933c0 8.146489 6.621867 14.756978 14.791111 14.756978 34.440533 0 62.475378 27.966578 62.475378 62.350222 0 8.146489 6.621867 14.756978 14.791111 14.756978H603.249778a14.779733 14.779733 0 1 0 0-29.525333H428.566756a92.16 92.16 0 0 0-76.071823-75.912534V297.437867h389.586489v79.633066c0 8.157867 6.621867 14.756978 14.779734 14.756978 8.180622 0 14.802489-6.610489 14.802488-14.756978V292.181333a85.959111 85.959111 0 0 0 28.808534-64.500622zM322.924089 410.532978v245.930666l-55.387022-24.746666V350.902044c30.9248 2.332444 55.387022 28.171378 55.387022 59.630934zM203.047822 539.795911V410.532978a59.881244 59.881244 0 0 1 34.9184-54.340267v258.230045a97.427911 97.427911 0 0 1-34.9184-74.626845z" fill="" /><path d="M396.822756 800.950044h300.9536a14.768356 14.768356 0 1 0 0-29.513955H396.822756a14.768356 14.768356 0 1 0 0 29.513955z" fill="" /></svg>