<?xml version="1.0" encoding="utf-8"?>
<!-- Uploaded to: SVG Repo, www.svgrepo.com, Generator: SVG Repo Mixer Tools -->
<svg width="800px" height="800px" viewBox="0 0 1024 1024" class="icon"  version="1.1" xmlns="http://www.w3.org/2000/svg"><path d="M189.1 737.852L763.04 163.914l98.389 98.39L287.49 836.242z" fill="#FCB814" /><path d="M763.048 163.91l-23.713 23.713 74.679 74.677-550.232 550.233 23.713 23.712L861.438 262.3z" fill="" /><path d="M330.644 790.397c-19.204-19.203-44.361-28.818-69.531-28.859-0.04-25.172-9.656-50.327-28.86-69.531-38.491-38.491-100.895-38.491-139.386 0-38.489 38.489-38.489 100.897 0 139.388 19.205 19.203 44.361 28.818 69.53 28.859 0.042 25.169 9.658 50.325 28.86 69.53 38.492 38.491 100.897 38.491 139.388 0 38.489-38.492 38.489-100.896-0.001-139.387z" fill="#FCB814" /><path d="M330.644 882.358c-38.491 38.491-100.896 38.491-139.388 0-19.203-19.205-28.818-44.36-28.86-69.53-25.169-0.04-50.325-9.656-69.53-28.859-13.161-13.161-21.708-29.139-25.869-45.982-8.008 32.411 0.539 68.077 25.869 93.407 19.205 19.203 44.361 28.818 69.53 28.859 0.042 25.169 9.658 50.325 28.86 69.53 38.492 38.491 100.897 38.491 139.388 0 25.329-25.33 33.878-60.995 25.869-93.407-4.16 16.844-12.708 32.821-25.869 45.982z" fill="" /><path d="M931.132 192.608c-19.205-19.203-44.361-28.818-69.53-28.859-0.042-25.171-9.658-50.328-28.86-69.533-38.491-38.491-100.895-38.491-139.388 0-38.489 38.491-38.489 100.897 0 139.388 19.204 19.203 44.361 28.818 69.531 28.859 0.042 25.17 9.656 50.328 28.86 69.531 38.491 38.489 100.895 38.489 139.386 0 38.492-38.491 38.492-100.896 0.001-139.386z" fill="#FCB814" /><path d="M931.132 300.377c-38.491 38.489-100.896 38.489-139.386 0-19.204-19.203-28.818-44.361-28.86-69.53-25.17-0.042-50.327-9.658-69.531-28.86-15.208-15.208-24.308-34.16-27.498-53.885-4.885 30.196 4.217 62.22 27.498 85.502 19.204 19.203 44.361 28.818 69.531 28.859 0.042 25.17 9.656 50.328 28.86 69.531 38.491 38.489 100.895 38.489 139.386 0 23.283-23.284 32.383-55.304 27.499-85.503-3.191 19.726-12.291 38.68-27.499 53.886z" fill="" /></svg>