<?xml version="1.0" encoding="utf-8"?>
<!-- Uploaded to: SVG Repo, www.svgrepo.com, Generator: SVG Repo Mixer Tools -->
<svg width="800px" height="800px" viewBox="0 0 256 256" xmlns="http://www.w3.org/2000/svg" xmlns:xlink="http://www.w3.org/1999/xlink" preserveAspectRatio="xMidYMid">
  <defs>
    <style>

      .cls-3 {
        fill: #a74920;
      }

      .cls-4 {
        fill: #a83dec;
      }

      .cls-5 {
        fill: #b858f5;
      }

      .cls-8 {
        fill: #fce202;
      }

      .cls-9 {
        fill: #fc9502;
      }
    </style>
  </defs>
  <g id="exercise_bike">
    <path d="M40.395,84.708 C40.395,84.708 59.816,80.308 59.816,80.308 C59.816,80.308 69.604,122.229 69.604,122.229 C69.604,122.229 50.183,126.629 50.183,126.629 C50.183,126.629 40.395,84.708 40.395,84.708 Z" id="path-1" class="cls-3" fill-rule="evenodd"/>
    <path d="M248.038,37.241 C243.038,55.901 228.116,69.239 210.470,73.126 C210.470,73.126 181.065,182.869 181.065,182.869 C181.065,182.869 164.644,178.470 164.644,178.470 C164.644,178.470 194.926,65.456 194.926,65.456 C196.947,57.912 203.382,57.081 203.382,57.081 C216.493,55.624 227.997,46.352 231.618,32.841 C231.618,32.841 238.735,6.278 238.735,6.278 C239.950,1.744 244.611,-0.947 249.145,0.268 C253.680,1.483 256.371,6.144 255.156,10.678 C255.156,10.678 248.038,37.241 248.038,37.241 Z" id="path-2" class="cls-4" fill-rule="evenodd"/>
    <path d="M15.000,50.469 C15.000,50.469 91.000,50.469 91.000,50.469 C95.418,50.469 99.000,54.050 99.000,58.469 C99.000,61.687 94.418,64.469 91.000,66.469 C91.000,66.469 58.800,86.469 35.000,86.469 C11.200,86.469 7.000,62.887 7.000,58.469 C7.000,54.050 10.582,50.469 15.000,50.469 Z" id="path-3" class="cls-5" fill-rule="evenodd"/>
    <path d="M256.000,226.469 C256.000,243.037 242.568,256.469 226.000,256.469 C226.000,256.469 67.000,256.469 67.000,256.469 C67.000,256.469 67.007,256.443 67.007,256.443 C29.911,255.910 -0.000,225.691 -0.000,188.469 C-0.000,150.913 30.445,120.469 68.000,120.469 C85.733,120.469 96.600,126.469 102.000,129.469 C107.400,132.469 237.000,198.469 237.000,198.469 C237.000,198.469 236.984,198.553 236.984,198.553 C249.117,205.337 256.000,213.779 256.000,226.469 Z" id="path-4" class="cls-5" fill-rule="evenodd"/>
    <circle id="circle-1" class="cls-3" cx="68" cy="188" r="38"/>
    <path d="M83.596,172.452 C75.005,163.861 61.075,163.861 52.483,172.452 C43.892,181.044 43.892,194.973 52.483,203.565 C64.862,215.944 82.327,207.953 90.137,215.762 C94.830,220.456 99.860,225.485 99.860,225.485 C102.637,228.263 105.516,225.485 105.516,225.485 C107.078,223.923 107.078,221.390 105.516,219.828 C105.516,219.828 100.487,214.799 95.794,210.106 C86.740,201.052 96.818,185.674 83.596,172.452 Z" id="path-5" class="cls-8" fill-rule="evenodd"/>
    <path d="M95.000,221.469 C95.000,221.469 121.000,221.469 121.000,221.469 C125.418,221.469 129.000,225.050 129.000,229.469 C129.000,229.469 129.000,230.469 129.000,230.469 C129.000,234.887 125.418,238.469 121.000,238.469 C121.000,238.469 95.000,238.469 95.000,238.469 C90.582,238.469 87.000,234.887 87.000,230.469 C87.000,230.469 87.000,229.469 87.000,229.469 C87.000,225.050 90.582,221.469 95.000,221.469 Z" id="path-6" class="cls-9" fill-rule="evenodd"/>
  </g>
</svg>