<?xml version="1.0" encoding="utf-8"?>
<!-- Uploaded to: SVG Repo, www.svgrepo.com, Generator: SVG Repo Mixer Tools -->
<svg width="800px" height="800px" viewBox="-8 0 256 256" xmlns="http://www.w3.org/2000/svg" xmlns:xlink="http://www.w3.org/1999/xlink" preserveAspectRatio="xMidYMid">
  <defs>
    <style>

      .cls-3 {
        fill: #bbd6f9;
      }

      .cls-4 {
        fill: #a4c1e9;
      }

      .cls-5 {
        fill: #a83dec;
      }

      .cls-6 {
        fill: #b858f5;
      }
    </style>
  </defs>
  <g id="expander">
    <path d="M74.284,105.752 C74.284,105.752 57.774,101.324 57.774,101.324 C57.774,101.324 68.611,60.845 68.611,60.845 C70.939,68.899 75.083,76.180 80.589,82.201 C80.589,82.201 74.284,105.752 74.284,105.752 Z" id="path-1" class="cls-3" fill-rule="evenodd"/>
    <path d="M166.302,106.013 C166.302,106.013 148.583,40.016 148.583,40.016 C145.881,26.851 134.238,16.981 120.283,16.981 C104.327,16.981 91.767,29.895 91.767,45.865 C91.767,61.834 104.327,74.967 120.283,74.967 C131.216,74.967 140.729,68.701 145.636,59.737 C145.636,59.737 151.020,79.846 151.020,79.846 C142.891,87.221 132.120,91.979 120.283,91.979 C94.973,91.979 74.768,71.195 74.768,45.865 C74.768,20.534 94.973,-0.000 120.283,-0.000 C141.328,-0.000 159.048,14.202 164.426,33.549 C164.426,33.549 182.757,101.601 182.757,101.601 C182.757,101.601 166.302,106.013 166.302,106.013 Z" id="path-2" class="cls-4" fill-rule="evenodd"/>
    <path d="M217.414,231.230 C217.414,231.230 188.132,118.217 188.132,118.217 C188.132,118.217 209.382,112.523 209.382,112.523 C209.382,112.523 238.664,225.536 238.664,225.536 C238.664,225.536 217.414,231.230 217.414,231.230 ZM1.086,225.536 C1.086,225.536 31.368,112.523 31.368,112.523 C31.368,112.523 52.618,118.217 52.618,118.217 C52.618,118.217 22.336,231.230 22.336,231.230 C22.336,231.230 1.086,225.536 1.086,225.536 Z" id="path-3" class="cls-5" fill-rule="evenodd"/>
    <path d="M227.868,247.064 C227.868,247.064 196.958,255.346 196.958,255.346 C188.423,257.633 179.649,252.568 177.362,244.032 C177.362,244.032 146.045,127.155 146.045,127.155 C143.758,118.620 148.824,109.846 157.359,107.559 C157.359,107.559 209.519,93.583 209.519,93.583 C213.787,92.440 218.173,94.972 219.317,99.240 C219.317,99.240 220.352,103.104 220.352,103.104 C221.496,107.371 218.963,111.758 214.695,112.902 C214.695,112.902 205.036,115.490 205.036,115.490 C196.500,117.777 191.435,126.550 193.722,135.086 C193.722,135.086 214.687,213.326 214.687,213.326 C216.974,221.861 225.747,226.926 234.283,224.639 C234.283,224.639 238.146,223.604 238.146,223.604 C238.146,223.604 239.181,227.468 239.181,227.468 C241.468,236.003 236.403,244.777 227.868,247.064 ZM62.387,244.032 C60.100,252.568 51.327,257.633 42.791,255.346 C42.791,255.346 11.882,247.064 11.882,247.064 C3.346,244.777 -1.719,236.003 0.568,227.468 C0.568,227.468 1.603,223.604 1.603,223.604 C1.603,223.604 5.467,224.639 5.467,224.639 C14.003,226.926 22.776,221.861 25.063,213.326 C25.063,213.326 46.027,135.086 46.027,135.086 C48.314,126.550 43.249,117.777 34.713,115.490 C34.713,115.490 25.054,112.902 25.054,112.902 C20.787,111.758 18.254,107.371 19.397,103.104 C19.397,103.104 20.433,99.240 20.433,99.240 C21.576,94.972 25.963,92.440 30.231,93.583 C30.231,93.583 82.391,107.559 82.391,107.559 C90.926,109.846 95.991,118.620 93.704,127.155 C93.704,127.155 62.387,244.032 62.387,244.032 Z" id="path-4" class="cls-6" fill-rule="evenodd"/>
  </g>
</svg>