<?xml version="1.0" encoding="utf-8"?>
<!-- Uploaded to: SVG Repo, www.svgrepo.com, Generator: SVG Repo Mixer Tools -->
<svg width="800px" height="800px" viewBox="0 -56 1136 1136" class="icon"  version="1.1" xmlns="http://www.w3.org/2000/svg"><path d="M330.830769 348.553846s-64-32.098462-57.107692-131.150769 116.775385-116.381538 116.775385-116.381539 103.581538-6.498462 140.8 91.766154-53.169231 155.766154-53.169231 155.766154 24.615385-19.298462 76.8 72.467692l87.433846 116.381539s27.766154 3.150769 33.083077 10.633846 75.815385 37.415385 75.815384 37.415385-50.215385-39.384615-25.6-110.867693 110.867692-55.532308 110.867693-55.532307 80.147692 10.633846 73.649231 115.2c0 0-8.467692 40.566154-34.067693 51.2-25.6 10.633846 21.267692 10.633846 21.267693 10.633846l72.467692 137.649231s12.8 26.584615-24.615385 44.898461c-37.415385 18.116923-32.098462 6.498462-32.098461 6.498462l-0.984616 83.298461s-4.332308 29.932308-48.04923 24.615385c-43.716923-5.316923-36.233846-41.550769-36.233847-41.550769l-2.166153-42.732308-36.233847-2.166154-0.984615 64.984615s3.150769 24.812308-34.067692 22.055385c-37.415385-2.756923-45.883077-27.372308-45.883077-27.372308l-3.150769-207.950769L640 628.184615s-13.587692 15.36-35.249231 15.556923c-21.661538 0.196923-64.787692-55.138462-64.787692-55.138461l-4.135385 268.209231s-8.467692 44.898462-53.956923 41.353846c-45.489231-3.544615-55.532308-41.353846-55.532307-41.353846v-169.747693l-41.156924-1.378461v171.126154s-18.510769 45.292308-52.578461 41.550769c-34.067692-3.741538-59.470769-41.550769-59.470769-41.550769v-193.969231s-43.126154 25.6-75.815385-21.267692 56.910769-179.2 56.910769-179.2 28.553846-84.48 46.867693-102.793847c18.707692-18.510769 29.735385-11.027692 29.735384-11.027692z" fill="#FF8598" /><path d="M336.541538 915.692308c-1.969231 0-3.938462-0.196923-5.907692-0.393846-41.550769-4.529231-70.498462-47.261538-71.68-49.23077l-2.953846-4.332307v-175.655385c-22.055385 3.150769-50.215385-2.953846-72.664615-35.052308-36.627692-52.578462 36.824615-168.96 55.532307-196.726154 6.498462-18.707692 30.916923-88.024615 50.412308-107.323076 2.166154-2.166154 4.135385-3.938462 6.104615-5.513847-20.283077-21.661538-43.323077-60.849231-38.793846-125.636923 6.301538-89.206154 88.615385-125.243077 131.150769-131.938461l1.575385-0.196923c40.172308-2.56 124.849231 15.753846 157.932308 102.793846 25.796923 67.741538-2.953846 122.486154-33.673846 154.190769 17.132308 12.603077 35.446154 36.036923 55.335384 70.695385l82.510769 109.686154c17.92 2.756923 30.129231 7.876923 36.43077 15.163076 2.756923 1.969231 9.452308 5.513846 18.510769 10.043077-6.301538-20.283077-7.876923-46.473846 2.756923-77.587692 23.236923-67.544615 95.310769-73.255385 130.166154-66.756923 9.452308 1.772308 94.523077 20.086154 87.630769 133.12l-0.393846 2.56c-0.787692 3.347692-5.513846 24.615385-18.707692 42.338462l76.996923 146.313846c5.513846 11.618462 10.633846 46.670769-32.492308 67.544615-8.467692 4.135385-15.950769 7.483077-22.646154 9.452308l-0.984615 67.150769c-2.363077 16.147692-19.298462 44.898462-66.953846 38.990769-19.101538-2.363077-33.476923-9.846154-42.338462-22.449231-10.436923-14.572308-9.649231-30.72-8.861538-37.021538l-1.378462-25.6-3.150769-0.196923-0.787692 46.276923c0.590769 7.483077-1.772308 18.313846-9.649231 26.781538-9.452308 9.846154-23.827692 14.178462-42.732308 12.8-38.203077-2.756923-56.123077-25.6-60.652308-38.793846l-0.984615-2.56-3.150769-200.073846-45.489231-20.676923c-8.270769 5.907692-21.070769 12.406154-37.809231 12.603077-15.163077 0.196923-32.886154-12.996923-48.443077-27.963077L553.156923 858.584615l-0.196923 1.378462c-3.938462 20.676923-24.024615 58.88-72.073846 55.335385-56.910769-4.332308-70.104615-51.987692-70.695385-54.153847l-0.590769-2.166153v-155.372308l-7.089231-0.196923v156.947692l-1.181538 3.150769c-8.467692 19.889231-30.916923 52.184615-64.787693 52.184616z m-46.276923-64.393846c8.073846 10.24 25.6 28.16 44.11077 30.12923 16.935385 1.772308 29.735385-20.676923 33.673846-28.356923v-185.107692l75.421538 2.56v183.532308c2.363077 6.104615 11.618462 25.009231 39.778462 27.175384 26.387692 1.969231 33.870769-19.495385 35.643077-26.387692l4.726154-314.88 29.735384 38.203077c18.904615 24.221538 43.323077 47.261538 51.593846 48.64 12.996923-0.196923 22.055385-9.649231 22.252308-9.649231l8.270769-9.452308 86.646154 39.384616 3.347692 215.04c2.56 4.135385 10.436923 12.996923 30.129231 14.375384 9.846154 0.787692 14.375385-1.181538 15.556923-2.166153l0.393846-0.59077-0.196923-1.181538 1.378462-84.086154 69.316923 4.135385 2.953846 60.061538-0.393846 2.166154s-1.181538 7.483077 2.953846 12.996923c3.150769 4.332308 9.452308 7.089231 18.707692 8.270769 22.646154 2.756923 27.766154-6.301538 28.947693-9.649231l0.984615-76.996923c-0.590769-3.741538 0-7.483077 1.575385-11.224615l7.68-16.935385c5.907692-12.996923 25.403077-8.664615 25.206154 5.71077 2.166154-0.984615 4.529231-1.969231 7.286153-3.347693 19.101538-9.255385 17.723077-18.904615 16.541539-22.252307l-67.544616-128c-19.889231-0.984615-32.689231-5.12-35.24923-18.51077-1.378462-7.286154 0.393846-17.723077 17.723077-24.812307 12.603077-5.316923 21.267692-26.978462 23.827692-37.809231 4.529231-83.889231-52.578462-94.916923-59.076923-95.901539l-0.787692-0.196923c-2.953846-0.590769-72.270769-12.209231-91.569231 44.307693-20.086154 58.486154 18.510769 90.781538 20.086154 92.16l-2.166154 14.375384c-1.181538 7.68-7.286154 13.784615-15.163077 14.769231-65.772308-27.963077-77.981538-37.218462-81.723077-41.550769-3.544615-1.772308-13.981538-4.135385-22.252308-5.12l-7.286154-0.787692-93.144615-123.864616c-36.430769-63.803077-55.335385-65.575385-55.532308-65.575384 0 0 0.984615 0 2.56-0.984616l-19.692307-27.766154c0.393846-0.196923 0.984615-0.590769 1.575384-1.181538 5.710769-3.741538 77.587692-53.169231 46.276923-135.089231-30.916923-81.329231-114.412308-80.935385-123.076923-80.738461-10.043077 1.772308-95.901538 19.495385-101.612307 100.430769-5.907692 85.661538 45.686154 113.624615 47.852307 114.806154 0.984615 0.393846 1.575385 0.787692 1.772308 0.984615l-17.132308 29.341538c0.787692 0.393846 1.181538 0.393846 1.378462 0.393847 0 0-3.938462 0.196923-11.224616 7.483077-10.830769 10.633846-31.507692 62.621538-42.732307 96.295384l-0.787693 2.166154-1.378461 1.969231c-33.476923 49.427692-74.830769 134.498462-57.107692 159.901538 22.055385 31.704615 48.246154 19.101538 53.16923 16.344616l25.403077-14.375385 0.196923 29.144615v187.273847z m664.221539-110.473847z m-74.436923-138.633846zM689.230769 537.993846s0.196923 0 0 0c0.196923 0 0 0 0 0z" fill="#493B4E" /></svg>