<?xml version="1.0" encoding="utf-8"?>
<!-- Uploaded to: SVG Repo, www.svgrepo.com, Generator: SVG Repo Mixer Tools -->
<svg width="800px" height="800px" viewBox="0 0 1024 1024" class="icon"  version="1.1" xmlns="http://www.w3.org/2000/svg"><path d="M902.3 517.4l-3.2 4.9c-0.6 1-63.7 96.2-145 209.5-62.8 87.5-135.9 99.1-170.5 99.1-11.6 0-18.9-1.3-20.1-1.5H356l-14.5-14.3h223.4c5.4 0.9 99.1 17.3 177.5-91.7 70.5-98.1 127-182.5 141.2-203.8-10.2-8.3-43-35.2-74.6-30.1-10.2 1.7-25.6 13.2-42.5 29.9l-2.3-2.3v-16.9c16.2-13.8 31.3-23.1 42.6-24.9 47.3-7.7 89.6 36.4 91.2 38l4.3 4.1z" fill="#C9971C" /><path d="M883.6 519.6c-14.2 21.4-70.7 105.8-141.2 203.8-78.4 109-172.1 92.6-177.5 91.7H341.5L186.8 661.9C200.6 638.4 274 530.7 440 582c7.5 6.3 44.5 31.2 130.8 11.3 11.6-2.7 21.7-3.8 30.6-3.8 26.7 0 41.6 10.5 49.6 20.8 13.7 17.4 13.7 41.3 6.8 55.1-14.1 28.1-37.5 40.6-75.8 40.6H454.5v14.3H582c44 0 72.1-15.5 88.7-48.6 3.2-6.5 5.2-14.8 5.6-23.7l0.1 0.3c13.4-36.6 55-94 90.2-128.9 16.9-16.8 32.2-28.3 42.5-29.9 31.5-5.1 64.3 21.7 74.5 30.1z" fill="#FFF0C2" /><path d="M796.5 265.2v75.6c0 16.4-13.3 29.7-29.7 29.7h-2.6v129.8c-4.5 4-9.1 8.2-13.8 12.7V370.5H605.1v204.9c-5-0.3-10.4-0.1-16.1 0.5V252.5c-1.4 0-2.6 0.1-4 0.1-11 0-22.6-0.4-34.9-1H546.6c-4.9 0.3-9.5 0.4-14.1 0.6v332.9c-5.8 0.6-11.1 1-16.1 1.2V370.5H367v183.9c-4.7-0.4-9.3-0.4-13.8-0.4V370.5h-6.5c-16.4 0-29.8-13.3-29.8-29.7v-75.6c0-16.4 13.4-29.7 29.8-29.7h66.5c-11.5-6.1-20.1-13.6-25.3-22.8-15.9-28.1 4.7-58.8 5.6-60.1 14.8-18 31.5-25.8 50-23.7 47.1 5.2 90.5 75.8 104.9 101.5 14.5-25.7 57.9-96.3 105-101.5 18.4-2.2 35.2 5.6 49.6 23 1.3 1.9 21.9 32.6 6 60.7-5.2 9.2-13.8 16.6-25.3 22.8h83.2c16.3 0.1 29.6 13.4 29.6 29.8z m-16.1 75.6v-75.6c0-7.5-6.1-13.6-13.6-13.6H614.3c-3.1 0.1-6 0.4-9.2 0.5v102.2h161.8c7.4 0 13.5-6 13.5-13.5zM694.9 205c11-19.4-4.7-43-4.9-43.2-10.5-12.5-22.1-18.3-34.9-16.8-34.8 3.8-73 58.8-91 90.5H616c51.2-3.9 71.6-17.7 78.9-30.5z m-214.5 30.5h52.2c-18-31.7-56.1-86.7-90.9-90.5-12.9-1.4-24.6 4.2-35.4 17.4 0.1 0-15.2 23.3-4.3 42.6 7.2 12.6 27.3 26.6 78.4 30.5z m36.1 118.8V252.7h-4.7c-10.5 0-20.1-0.4-29.3-1H346.7c-7.5 0-13.6 6-13.6 13.6v75.6c0 7.5 6 13.6 13.6 13.6h169.8z" fill="#EF4666" /><path d="M780.4 265.2v75.6c0 7.5-6.1 13.6-13.6 13.6H605.1V252.2c3.2-0.1 6.1-0.4 9.2-0.5h152.6c7.4 0 13.5 6 13.5 13.5z" fill="#FFF0C2" /><path d="M764.3 517.1l2.3 2.3c-35.2 34.9-76.7 92.3-90.2 128.9l-0.1-0.3c0.6-8.6-0.4-17.9-3.5-26.9 15.1-36.2 46.8-78.5 77.6-108.3v10.9l8.4-6.6h5.5z" fill="#C9971C" /><path d="M764.3 500.2v16.9h-5.4l-8.4 6.6v-10.9c4.7-4.4 9.3-8.6 13.8-12.6z" fill="#C9971C" /><path d="M750.5 370.5V513c-30.8 29.8-62.5 72.1-77.6 108.3-2.3-6.9-5.8-13.7-10.6-19.8-8.2-10.4-25.2-24.9-57.2-26.1V370.5h145.4z" fill="#FFE085" /><path d="M690 161.8c0.1 0.3 15.9 23.8 4.9 43.2-7.3 12.8-27.6 26.6-78.9 30.6h-52c18-31.7 56.3-86.7 91-90.5 12.9-1.6 24.5 4.1 35 16.7z" fill="#F59A9B" /><path d="M672.9 621.2c3.1 9 4.1 18.3 3.5 26.9l-6.1-20.1c0.7-2.2 1.5-4.5 2.6-6.8z" fill="#C9971C" /><path d="M670.2 628l6.1 20.1c-0.4 8.8-2.4 17.1-5.6 23.7-16.6 33.1-44.8 48.6-88.7 48.6H454.5V706H582c38.4 0 61.8-12.5 75.8-40.7 6.9-13.8 6.9-37.7-6.8-55.1-8.1-10.4-22.9-20.8-49.6-20.8v-4h3.7v-10.1c32 1.2 49 15.7 57.2 26.1 4.9 6.1 8.3 12.9 10.6 19.8-1.1 2.3-1.9 4.6-2.7 6.8z" fill="#C9971C" /><path d="M605.1 575.3v10.1h-3.7l-12.4 0.3v-9.8c5.7-0.7 11.1-0.8 16.1-0.6z" fill="#C9971C" /><path d="M601.4 585.4v4c-8.8 0-18.9 1.2-30.6 3.8-86.3 19.9-123.3-5-130.8-11.3-166-51.3-239.4 56.4-253.2 79.9l-10.4-10.4c15.5-24.9 69.4-96.5 176.7-97.6v6.1H367v-5.8c23.7 0.9 49.9 5.5 78.6 14.5l1.7 0.5 1.3 1.2c0.3 0.3 19.1 17.4 67.9 15.9v5h5l11.1-0.1v-6c10.5-1 22.1-2.9 35-5.9 7.7-1.7 14.8-2.8 21.4-3.5v9.8l12.4-0.1z" fill="#C9971C" /><path d="M589 252.5v323.3c-6.5 0.6-13.7 1.8-21.4 3.5-12.9 2.9-24.6 4.9-35 5.9V252.3c4.6-0.3 9.2-0.4 14.1-0.6H550.2c12.3 0.6 23.9 1 34.9 1 1.3 0 2.5-0.2 3.9-0.2z" fill="#F59A9B" /><path d="M532.6 585.2v6l-11.1 0.1h-5v-5c5-0.1 10.3-0.5 16.1-1.1z" fill="#C9971C" /><path d="M532.6 235.5h-52.2c-51.2-4-71.2-17.9-78.5-30.6-10.9-19.3 4.5-42.6 4.3-42.6 10.9-13.2 22.5-18.8 35.4-17.4 34.9 3.9 73 58.9 91 90.6z" fill="#F59A9B" /><path d="M516.5 370.5v215.9c-48.8 1.5-67.6-15.6-67.9-15.9l-1.3-1.2-1.7-0.5c-28.8-9-55-13.6-78.6-14.5V370.5h149.5z" fill="#FFE085" /><path d="M516.5 252.7v101.7H346.7c-7.5 0-13.6-6-13.6-13.6v-75.6c0-7.5 6-13.6 13.6-13.6h135.8c9.2 0.6 18.8 1 29.3 1 1.5 0.1 3.1 0.1 4.7 0.1z" fill="#FFF0C2" /><path d="M367 554.3v5.8h-13.8V554c4.5 0 9.1 0 13.8 0.3zM360.6 834c19.2 19.1 19.4 50.3 0.3 69.4l-21.6 21.9c-9.2 9.3-21.5 14.5-34.7 14.5h-0.3c-13 0-25.3-5-34.5-14.1L72.5 730.3C63.3 721 58 708.7 58 695.5s5-25.4 14.2-34.8l21.6-21.9c9.2-9.2 21.5-14.5 34.7-14.5h0.3c13 0 25.3 5 34.7 14.2l13 12.9c-3.2 5.1-4.7 8.3-4.9 8.6l12.8 6.1c0.1-0.1 0.9-1.7 2.4-4.3L341.5 815H334v12.7l-180.7-179c-6.5-6.4-15.2-10-24.6-10h-0.1c-9.3 0-18.2 3.7-24.7 10.2l-21.6 21.9c-6.5 6.5-10 15.3-10 24.7 0 9.3 3.7 18 10.2 24.6l197.3 195.4c6.5 6.5 15.2 10.1 24.4 10.1h0.3c9.3-0.1 18-3.7 24.6-10.4l21.6-21.7c13.6-13.7 13.4-35.8-0.3-49.4l-14.8-14.7H356l4.6 4.6z" fill="#C9971C" /><path d="M356 829.4h-20.3l-1.7-1.7v-12.6h7.5z" fill="#C9971C" /><path d="M350.5 844.1c13.7 13.6 13.8 35.7 0.3 49.4l-21.6 21.7c-6.5 6.6-15.2 10.2-24.6 10.4h-0.3c-9.2 0-17.9-3.6-24.4-10.1L82.6 720.1c-6.5-6.5-10.2-15.2-10.2-24.6 0-9.3 3.5-18.2 10-24.7l21.6-21.9c6.5-6.5 15.3-10.2 24.7-10.2h0.1c9.3 0 18 3.6 24.6 10l180.7 179v1.7h1.7l14.7 14.7z" fill="#C9971C" /><path d="M335.7 829.4H334v-1.7zM176.4 651.5l10.4 10.4c-1.5 2.7-2.3 4.2-2.4 4.3l-12.8-6.1c0.1-0.3 1.7-3.5 4.8-8.6z" fill="#C9971C" /></svg>