<?xml version="1.0" encoding="utf-8"?>
<!-- Uploaded to: SVG Repo, www.svgrepo.com, Generator: SVG Repo Mixer Tools -->
<svg width="800px" height="800px" viewBox="0 -56 1136 1136" class="icon"  version="1.1" xmlns="http://www.w3.org/2000/svg"><path d="M255.015385 409.796923s-113.821538-16.344615-106.338462 80.147692c7.483077 96.295385 106.338462 78.769231 106.338462 78.769231s66.363077 252.652308 332.8 257.772308 346.584615-260.135385 346.584615-260.135385 106.338462 32.492308 116.381538-76.209231-111.458462-81.526154-111.458461-81.526153S888.123077 155.766154 587.815385 153.403077s-332.8 256.393846-332.8 256.393846z" fill="#FFC0A9" /><path d="M595.101538 846.375385h-7.68c-145.526154-2.756923-233.550769-76.8-281.6-138.436923-37.021538-47.458462-56.516923-94.326154-64.984615-118.153847-19.101538 0.393846-49.821538-2.56-74.633846-21.858461-22.252308-17.132308-34.855385-42.929231-37.415385-76.603077-2.56-31.901538 6.104615-57.304615 25.403077-75.421539 25.206154-23.630769 62.227692-27.569231 84.48-27.175384 5.907692-25.206154 20.283077-72.467692 53.76-119.729231 44.504615-62.621538 131.544615-137.058462 295.384616-135.68 163.052308 1.378462 255.212308 74.830769 303.852307 136.270769 36.627692 46.276923 54.547692 92.16 62.227693 116.775385 23.236923-2.166154 62.424615-1.378462 89.403077 22.252308 21.267692 18.707692 30.523077 46.670769 27.175384 83.101538-3.544615 38.006154-17.92 65.772308-42.732308 82.510769-27.372308 18.313846-60.258462 17.723077-80.344615 14.966154-9.649231 25.009231-31.704615 73.255385-70.892308 121.501539-72.073846 88.812308-169.353846 135.68-281.403077 135.68zM269.784615 545.673846l4.726154 17.92c0.196923 0.590769 16.541538 61.046154 63.803077 120.910769 62.227692 78.966154 146.313846 119.926154 249.895385 121.895385 248.32 4.529231 326.104615-243.396923 326.892307-245.956923l5.71077-19.298462 19.298461 5.907693c0.393846 0 39.384615 11.421538 65.378462-6.104616 14.375385-9.649231 22.843077-27.569231 25.009231-52.775384 2.166154-22.843077-2.363077-39.384615-13.587693-49.23077-20.086154-17.723077-59.864615-13.587692-73.452307-10.633846l-19.889231 4.529231-4.135385-20.086154c-0.196923-0.590769-12.996923-60.652308-60.258461-119.729231-62.818462-78.375385-154.387692-118.744615-271.753847-119.72923-117.76-0.984615-205.784615 38.990769-262.498461 118.744615-42.338462 59.667692-50.215385 119.532308-50.215385 120.123077l-2.56 20.283077-20.086154-2.953846c-13.193846-1.772308-51.593846-2.56-70.892307 15.556923-10.043077 9.452308-14.375385 23.630769-12.8 43.126154 1.772308 22.252308 8.861538 38.006154 22.055384 48.04923 23.827692 18.510769 60.455385 12.603077 60.849231 12.603077l18.510769-3.150769z" fill="#493B4E" /><path d="M481.069296 499.027638a35.050906 35.050906 0 1 0 3.652962-70.006569 35.050906 35.050906 0 1 0-3.652962 70.006569Z" fill="#493B4E" /><path d="M704.993567 510.606399a35.050906 35.050906 0 1 0 3.652961-70.00657 35.050906 35.050906 0 1 0-3.652961 70.00657Z" fill="#493B4E" /><path d="M537.6 597.464615s-5.710769 50.806154 48.836923 54.35077c54.547692 3.544615 54.547692-45.489231 54.547692-45.489231s37.021538-31.507692 50.412308 4.332308c13.390769 35.643077-40.172308 85.858462-95.113846 86.843076s-115.003077-41.550769-109.686154-97.476923c0-0.196923 19.495385-36.627692 51.003077-2.56z" fill="#493B4E" /><path d="M634.092308 172.307692s-118.350769 14.966154-93.932308 70.301539c24.418462 55.335385 81.329231 61.44 81.329231 61.44s119.926154 18.116923 33.28-54.547693c0 0-23.04 7.68-41.747693 2.166154s-21.070769-49.033846 4.923077-52.972307 98.067692 13.587692 103.384616 49.624615 41.353846 68.923077-61.243077 112.049231c0 0-144.738462 10.043077-162.264616-112.836923 0 0-17.329231-22.449231 17.132308-73.058462 34.264615-50.806154 119.138462-2.166154 119.138462-2.166154z" fill="#493B4E" /></svg>