<?xml version="1.0" encoding="utf-8"?>
<!-- Uploaded to: SVG Repo, www.svgrepo.com, Generator: SVG Repo Mixer Tools -->
<svg width="800px" height="800px" viewBox="0 0 1024 1024" class="icon"  version="1.1" xmlns="http://www.w3.org/2000/svg"><path d="M850.5 153.7h-56.9c-14.1 0-25.5-11.4-25.5-25.5s11.4-25.5 25.5-25.5h56.9c14.1 0 25.5 11.4 25.5 25.5s-11.4 25.5-25.5 25.5zM614.7 154.2h-53.3c-14.1 0-25.5-11.4-25.5-25.5s11.4-25.5 25.5-25.5h53.3c14.1 0 25.5 11.4 25.5 25.5-0.1 14.1-11.5 25.5-25.5 25.5z" fill="#cdcdcd" /><path d="M726.6 703.4l-50.5 0.9c3.4-76.1 70.3-143.8 73.1-146.4l1.5-1.4 1.7-1.1c143.4-96.4 153.4-316.1 152-395.7-0.1-3.7-3.1-6.6-6.7-6.6h-56.3c-5 0-9.1-4.1-9.1-9.1v-31.3c0-5.3 4.3-9.6 9.6-9.6H928c13 0 23.8 9.9 24.9 22.8 0.3 3.4 7.2 84.4-9.8 182.6-10.1 58.2-26.6 110.3-49 155-28.2 56.2-65.9 100.7-112 132.2-8.1 7.9-53.2 56.8-55.5 107.7z" fill="#5B5B5B" /><path d="M675.7 704.5l50.6-0.3c-3.4-76.1-68.9-143.4-71.8-146.1-1-0.9-2-1.7-3.1-2.5-141.9-95.4-153.2-311.7-152.1-393.2 0.1-5 4.2-9.1 9.2-9.1h55c4.4 0 8-3.6 8-8v-35.8c0-3.4-2.8-6.2-6.2-6.2h-89.7c-13 0-23.8 9.9-24.9 22.8-0.3 3.4-7.2 84.4 9.8 182.6 10.1 58.2 26.6 110.3 49 155 28.2 56.2 65.9 100.7 112 132.2 8.1 7.9 51.9 57.7 54.2 108.6z" fill="#5B5B5B" /><path d="M675.2 705v-0.5c-2.5-55.5-53.5-107.9-54-108.4-46.1-31.5-83.8-76-112.1-132.3-22.4-44.7-38.9-96.9-49-155.1-17-98.2-10.1-179.3-9.8-182.7 1.2-13.3 12.1-23.2 25.4-23.2h89.7c3.7 0 6.7 3 6.7 6.7v35.8c0 4.7-3.8 8.5-8.5 8.5h-55c-4.7 0-8.6 3.8-8.7 8.6-1.2 86.6 11.3 298.3 151.8 392.8 1.1 0.8 2.2 1.6 3.2 2.5 0.7 0.6 68.5 68.7 71.9 146.4v0.5l-51.6 0.4zM475.6 103.7c-12.8 0-23.3 9.6-24.4 22.3-0.3 3.4-7.2 84.4 9.8 182.4 10.1 58.1 26.5 110.2 48.9 154.8 28.1 56.1 65.8 100.5 111.8 132 0.6 0.6 51.6 52.9 54.3 108.6l49.6-0.3c-3.7-77.1-70.9-144.6-71.6-145.2-1-0.9-2-1.7-3.1-2.4-61.3-41.2-105-109.2-129.9-202.1-20.7-77.3-22.9-153.2-22.4-191.5 0.1-5.3 4.4-9.6 9.7-9.6h55c4.1 0 7.5-3.4 7.5-7.5v-35.8c0-3.1-2.5-5.7-5.7-5.7h-89.5z" fill="#5B5B5B" /><path d="M508.4 953.2c-109 0-161.7-50.3-186.8-92.4-24.4-41.2-27.2-82.4-27.5-91.2-0.7-6.3-2.5-29.2 3.9-56.7 9.9-42.7 34.3-69.6 71.4-95.1 28.9-19.9 50.7-60.5 42.3-94.4-8.1-32.4-41.2-50.2-93.4-50.2H211v-50h107.3c39.4 0 71.8 8.2 96.5 24.5 23.1 15.2 38.8 37.2 45.4 63.6 6.8 27.4 6.7 59.9-9.5 86.7-19.5 32.3-35 47.5-57.9 63.9-57.3 41-49.1 101.9-49 102.6l0.2 1.7v1.4c0 1.6 1.2 36.1 21.5 69.3 27 44 75 66.3 142.8 66.3h0.1c68.9 0 117.9-23 145.6-68.3 19.7-32.2 21.8-64.8 21.9-67.6v-101h50v102.1c0 1.9-1.5 47.3-29.3 92.6-25.8 42-79.3 92.1-188.2 92.2 0.1 0 0 0 0 0z" fill="#5B5B5B" /><path d="M68.9 454.5a118.3 121.5 0 1 0 236.6 0 118.3 121.5 0 1 0-236.6 0Z" fill="#cdcdcd" /></svg>