<?xml version="1.0" encoding="utf-8"?>
<!-- Uploaded to: SVG Repo, www.svgrepo.com, Generator: SVG Repo Mixer Tools -->
<svg width="800px" height="800px" viewBox="0 0 1024 1024" class="icon"  version="1.1" xmlns="http://www.w3.org/2000/svg"><path d="M822.144 210.432H118.208a38.08 38.08 0 0 0-38.016 38.144v456.768c0 20.992 17.024 38.08 38.016 38.08h796.864a38.144 38.144 0 0 0 38.144-38.08V393.472l-131.072-183.04z" fill="#AED0B1" /><path d="M915.072 763.072H118.208a57.728 57.728 0 0 1-57.6-57.728V248.512c0-31.936 25.792-57.792 57.6-57.792h713.984L972.8 387.136v318.208a57.792 57.792 0 0 1-57.728 57.728zM118.208 230.08a18.432 18.432 0 0 0-18.368 18.432v456.768a18.56 18.56 0 0 0 18.368 18.432h796.864a18.56 18.56 0 0 0 18.432-18.432V399.872l-121.472-169.728H118.208z" fill="#579170" /><path d="M382.592 479.296a17.792 17.792 0 0 1-17.664 17.664h-188.16a17.664 17.664 0 0 1-17.6-17.664V299.584c0-9.664 7.872-17.6 17.6-17.6h188.096c9.664 0 17.664 7.936 17.664 17.6v179.712z" fill="#BADBED" /><path d="M364.928 508.8h-188.16a29.568 29.568 0 0 1-29.504-29.504V299.584c0-16.256 13.312-29.44 29.504-29.44h188.096a29.44 29.44 0 0 1 29.44 29.44v179.712a29.44 29.44 0 0 1-29.376 29.504z m-188.16-215.104a5.888 5.888 0 0 0-5.824 5.888V479.36c0 3.2 2.56 5.824 5.824 5.824h188.096a5.888 5.888 0 0 0 5.952-5.824V299.584a5.952 5.952 0 0 0-5.952-5.888H176.768z" fill="#579170" /><path d="M660.672 479.296a17.664 17.664 0 0 1-17.6 17.664H454.976a17.728 17.728 0 0 1-17.664-17.664V299.584c0-9.664 7.936-17.6 17.664-17.6h188.096c9.728 0 17.6 7.936 17.6 17.6v179.712z" fill="#BADBED" /><path d="M643.072 508.8H454.976a29.568 29.568 0 0 1-29.504-29.504V299.584a29.44 29.44 0 0 1 29.504-29.44h188.096a29.44 29.44 0 0 1 29.504 29.44v179.712a29.568 29.568 0 0 1-29.504 29.504zM454.976 293.696a5.888 5.888 0 0 0-5.888 5.888V479.36c0 3.2 2.624 5.824 5.888 5.824h188.096c3.2 0 5.888-2.624 5.888-5.824V299.584a5.952 5.952 0 0 0-5.888-5.888H454.976z" fill="#579170" /><path d="M871.424 281.984h-138.304a17.664 17.664 0 0 0-17.664 17.6V479.36c0 9.6 7.936 17.6 17.664 17.6h188.032a17.664 17.664 0 0 0 17.664-17.6V379.712l-67.392-97.728z" fill="#BADBED" /><path d="M921.216 508.8h-188.032a29.44 29.44 0 0 1-29.44-29.504V299.584a29.44 29.44 0 0 1 29.44-29.44h144.512l73.088 105.792v103.296a29.696 29.696 0 0 1-29.568 29.568z m-188.096-215.104a5.952 5.952 0 0 0-5.952 5.888V479.36c0 3.2 2.688 5.824 5.952 5.824h188.032a5.888 5.888 0 0 0 5.952-5.824V383.424l-61.824-89.728h-132.16z" fill="#579170" /><path d="M99.968 557.312h63.552v73.344h-63.552z" fill="#E1B030" /><path d="M869.632 557.312h63.616v73.344h-63.616z" fill="#FFFFFF" /><path d="M239.296 742.784m-80.128 0a80.128 80.128 0 1 0 160.256 0 80.128 80.128 0 1 0-160.256 0Z" fill="#C5CDD5" /><path d="M239.296 846.592a103.872 103.872 0 0 1-103.744-103.68c0-57.28 46.592-103.808 103.744-103.808s103.68 46.592 103.68 103.808c0 57.088-46.528 103.68-103.68 103.68z m0-160.32a56.64 56.64 0 0 0 0 113.152 56.576 56.576 0 0 0 0-113.152z" fill="#607385" /><path d="M765.312 742.784m-80.128 0a80.128 80.128 0 1 0 160.256 0 80.128 80.128 0 1 0-160.256 0Z" fill="#C5CDD5" /><path d="M765.248 846.592a103.808 103.808 0 0 1 0-207.488c57.28 0 103.744 46.592 103.744 103.808 0 57.088-46.464 103.68-103.744 103.68z m0-160.32a56.64 56.64 0 0 0 0 113.152 56.64 56.64 0 0 0 0-113.152z" fill="#607385" /></svg>