<?xml version="1.0" encoding="utf-8"?>
<!-- Uploaded to: SVG Repo, www.svgrepo.com, Generator: SVG Repo Mixer Tools -->
<svg width="800px" height="800px" viewBox="0 0 1024 1024" class="icon"  version="1.1" xmlns="http://www.w3.org/2000/svg"><path d="M483.84 90.88s-135.68 17.92-193.28 52.48-145.92 151.04-145.92 151.04-57.6 92.16-60.16 152.32 15.36 190.72 34.56 221.44 39.68 79.36 93.44 129.28 177.92 183.296 442.88 110.208c0 0 222.72-67.968 281.6-316.288 2.56 0 15.36-296.96-135.68-391.68-1.28 2.56-135.68-124.16-317.44-108.8z" fill="#FFFFFF" /><path d="M512 957.312c-60.16 0-118.528-11.776-173.312-35.072C285.696 899.84 238.08 867.712 197.12 826.752c-40.96-40.832-72.96-88.576-95.488-141.568C78.336 630.4 66.56 572.16 66.56 511.872c0-60.16 11.776-118.528 35.072-173.312 22.4-52.992 54.528-100.608 95.488-141.568 40.832-40.96 88.576-72.96 141.568-95.488C393.472 78.336 451.84 66.56 512 66.56s118.528 11.776 173.312 35.072C738.304 124.032 785.92 156.16 826.88 197.12c40.96 40.832 72.96 88.576 95.488 141.568C945.664 393.472 957.44 451.84 957.44 512s-11.776 118.528-35.072 173.312C899.968 738.304 867.84 785.92 826.88 826.88c-40.832 40.96-88.576 72.96-141.568 95.488-54.784 23.168-113.152 34.944-173.312 34.944zM512 107.52C289.024 107.52 107.52 289.024 107.52 512s181.504 404.48 404.48 404.48 404.48-181.504 404.48-404.48c0-223.104-181.504-404.48-404.48-404.48z m0 0" fill="" /><path d="M380.544 897.92l-6.912 4.224c-99.712-35.584-181.76-108.8-228.992-202.88l189.44 13.568 46.464 185.088z m490.752-187.008c-50.688 93.44-136.448 164.864-239.36 196.736l45.952-182.784 193.408-13.952z m49.92-198.016l-160-97.024L807.68 230.784l0.768-0.128c69.504 73.6 112.384 172.8 112.768 282.24z m-411.008-157.44l-153.6 111.744 58.752 180.608h189.952L663.936 467.2l-153.728-111.744z m158.208-218.368L510.72 249.088l-157.568-112 1.408-4.48c47.616-19.456 99.712-30.08 154.368-30.08 56.192 0 109.824 11.392 158.464 31.872l1.024 2.688z m-445.312 89.728l46.464 185.088-165.504 100.352c0.512-111.232 44.8-211.968 116.608-285.696l2.432 0.256z m0 0" fill="" /><path d="M919.168 514.944l-160-97.024 46.464-185.088 0.768-0.128c69.504 73.6 112.384 172.8 112.768 282.24z m-48.896 189.824c-50.688 93.44-136.448 164.864-239.36 196.736l45.952-182.784 193.408-13.952zM380.544 896.896l-6.912 4.224c-99.712-35.584-181.76-108.8-228.992-202.88l189.44 13.568 46.464 185.088z m0 0" fill="" /></svg>