<?xml version="1.0" encoding="utf-8"?>
<!-- Uploaded to: SVG Repo, www.svgrepo.com, Generator: SVG Repo Mixer Tools -->
<svg width="800px" height="800px" viewBox="0 -3 1030 1030" class="icon"  version="1.1" xmlns="http://www.w3.org/2000/svg"><path d="M481.360108 178.017228m-161.97964 0a161.97964 161.97964 0 1 0 323.95928 0 161.97964 161.97964 0 1 0-323.95928 0Z" fill="#FFE3A6" /><path d="M481.360108 355.232576c-97.829287 0-178.017228-79.386061-178.017228-178.017228S383.53082 0 481.360108 0s178.017228 79.386061 178.017228 178.017228-80.18794 177.215348-178.017228 177.215348zM481.360108 32.075176c-80.18794 0-145.942052 65.754111-145.942052 145.942052S401.172167 323.1574 481.360108 323.1574s145.942052-65.754111 145.942051-145.942052S561.548048 32.075176 481.360108 32.075176z" fill="#131313" /><path d="M481.360108 175.61159m-90.612373 0a90.612373 90.612373 0 1 0 181.224746 0 90.612373 90.612373 0 1 0-181.224746 0Z" fill="#FFE3A6" /><path d="M481.360108 282.261551c-58.537197 0-106.649961-47.310885-106.649961-106.649961S422.822911 68.961629 481.360108 68.961629s106.649961 47.310885 106.649961 106.649961-48.112764 106.649961-106.649961 106.649961z m0-181.224746c-40.89585 0-74.574785 33.678935-74.574785 74.574785s33.678935 74.574785 74.574785 74.574784c40.89585 0 74.574785-33.678935 74.574784-74.574784s-33.678935-74.574785-74.574784-74.574785z" fill="#131313" /><path d="M992.157289 541.268598h-52.924041c-21.650744-67.35787-69.763508-127.498825-136.319499-174.007831 14.433829-32.877056 33.678935-62.546594 58.537197-88.206734-12.83007 2.405638-56.933438 7.216915-153.960846 36.084573-70.565388-28.065779-146.743931-42.499608-222.922475-42.499608-154.762725 0-291.884103 56.131558-376.88332 142.734534-18.443226-21.650744-50.518403-24.858262-72.169146-7.216915s-24.858262 50.518403-7.216915 72.169147C33.10952 489.146437 40.326435 493.957713 48.345229 497.165231c-20.848865 39.292091-32.075176 82.593579-32.075176 126.696946 0 117.876273 77.782302 222.120595 197.262334 285.469068v76.980423c0 12.028191 9.622553 21.650744 21.650743 21.650744h115.470635c12.028191 0 21.650744-9.622553 21.650744-21.650744v-22.452623c74.574785 13.63195 151.555208 13.63195 226.931871 0v22.452623c0 12.028191 9.622553 21.650744 21.650744 21.650744h115.470634c12.028191 0 21.650744-9.622553 21.650744-21.650744v-77.782302c89.008614-48.112764 154.762725-118.678152 182.026625-201.271731h52.924041c12.83007 0 22.452623-10.424432 22.452623-22.452623v-120.281911c-0.801879-12.83007-10.424432-23.254503-23.254502-23.254503z" fill="#FFD6DC" /><path d="M735.555879 1024H620.887124c-20.848865 0-37.688332-16.839468-37.688332-37.688332v-3.207518c-64.952232 9.622553-129.904464 9.622553-194.856695 0v3.207518c0 20.848865-16.839468 37.688332-37.688332 37.688332H235.18313c-20.848865 0-37.688332-16.839468-37.688332-37.688332v-67.35787C74.00537 849.992169 0.232465 740.134691 0.232465 623.862177c0-41.697729 9.622553-82.593579 27.2639-120.281911-4.009397-3.207518-8.018794-7.216915-12.028191-11.226311-24.056382-28.867659-19.245106-71.367267 8.820673-95.42365 13.63195-11.226312 31.273297-16.839468 49.716523-15.235708 12.028191 0.801879 23.254503 5.613156 32.877056 12.028191C197.494798 307.921691 337.823694 256.60141 483.765746 256.60141c76.980423 0 151.555208 13.63195 223.724354 40.895849 85.801096-25.660141 129.904464-32.075176 146.743931-34.480814l4.009397-0.80188c6.415035-0.801879 13.63195 2.405638 16.839468 8.018794 3.207518 6.415035 2.405638 13.63195-2.405639 18.443227-20.046985 21.650744-36.886453 45.707126-49.716523 72.169146 60.942835 44.905247 105.046202 101.036805 127.498826 162.781519h41.697729c21.650744 0 38.490211 17.641347 38.490211 38.490212v120.281911c0 21.650744-17.641347 38.490211-38.490211 38.490211h-41.697729c-28.867659 77.782302-91.414252 146.743931-177.215349 194.856695v68.15975c0 23.254503-16.839468 40.09397-37.688332 40.09397z m-136.319499-76.178543c4.009397 0 7.216915 1.603759 10.424433 4.009397 4.009397 3.207518 5.613156 7.216915 5.613155 12.028191v22.452623c0 3.207518 2.405638 5.613156 5.613156 5.613156h115.470634c3.207518 0 5.613156-2.405638 5.613156-5.613156v-77.782302c0-5.613156 3.207518-11.226312 8.820674-14.43383 87.404855-47.310885 149.149569-115.470634 174.007831-192.451057 2.405638-6.415035 8.018794-11.226312 15.235708-11.226311h52.924041c4.009397 0 6.415035-3.207518 6.415035-6.415036v-120.28191c0-4.009397-3.207518-6.415035-6.415035-6.415036h-52.924041c-7.216915 0-12.83007-4.811276-15.235708-11.226311-20.848865-63.348473-65.754111-120.281911-129.904464-165.187158-6.415035-4.009397-8.820673-12.83007-5.613156-19.245105 8.820673-20.848865 20.046985-40.09397 33.678935-58.537197-24.858262 4.811276-60.140955 13.63195-109.857478 28.867659-3.207518 0.801879-7.216915 0.801879-10.424433-0.80188-68.961629-27.2639-141.932655-40.89585-216.507439-40.895849-144.338293 0-280.657792 51.320282-365.657008 137.923257-3.207518 3.207518-7.216915 4.811276-12.028192 4.811277s-8.820673-2.405638-12.028191-5.613156c-6.415035-7.216915-14.433829-12.028191-24.056382-12.830071-9.622553-0.801879-18.443226 1.603759-25.660141 8.018794-16.839468 12.028191-18.443226 34.480814-6.415035 49.716523 4.009397 4.811276 8.820673 8.018794 13.63195 10.424433 4.009397 1.603759 7.216915 4.811276 8.820673 9.622553 1.603759 4.009397 1.603759 8.820673-0.801879 12.83007C42.732073 541.268598 32.307641 582.164448 32.307641 623.862177c0 106.649961 70.565388 208.488645 188.44166 271.035239 5.613156 2.405638 8.820673 8.018794 8.820674 14.433829v76.980423c0 3.207518 2.405638 5.613156 5.613155 5.613156h115.470635c3.207518 0 5.613156-2.405638 5.613156-5.613156v-22.452623c0-4.811276 2.405638-9.622553 5.613155-12.028191s8.820673-4.009397 12.830071-3.207518c72.971026 13.63195 147.54581 13.63195 220.516836 0 1.603759 0 2.405638-0.801879 4.009397-0.801879z" fill="#131313" /><path d="M246.409442 872.444792c-2.405638 0-4.811276-0.801879-7.216915-1.603758-112.263117-55.329679-182.026625-161.97964-170.800313-258.205169 0.801879-8.820673 8.820673-15.235709 17.641347-13.63195 8.820673 0.801879 15.235709 8.820673 13.63195 17.641347-8.820673 69.763508 41.697729 169.998434 153.158966 225.328113 8.018794 4.009397 11.226312 13.63195 7.216915 21.650744-2.405638 5.613156-8.018794 8.820673-13.63195 8.820673z" fill="#131313" /><path d="M482.963867 624.664056m-241.365701 0a241.365701 241.365701 0 1 0 482.731401 0 241.365701 241.365701 0 1 0-482.731401 0Z" fill="#EBAAB3" /><path d="M482.963867 882.067345c-141.932655 0-257.403289-115.470634-257.403289-257.403289 0-141.932655 115.470634-257.403289 257.403289-257.403289 141.932655 0 257.403289 115.470634 257.403289 257.403289-0.801879 141.932655-116.272514 257.403289-257.403289 257.403289z m0-482.731401c-124.291308 0-225.328113 101.036805-225.328113 225.328112S358.672559 849.992169 482.963867 849.992169s225.328113-101.036805 225.328112-225.328113-101.838684-225.328113-225.328112-225.328112z" fill="#131313" /><path d="M482.963867 624.664056m-171.602193 0a171.602193 171.602193 0 1 0 343.204385 0 171.602193 171.602193 0 1 0-343.204385 0Z" fill="#FFFFFF" /><path d="M482.963867 812.303837c-103.442443 0-187.639781-84.197338-187.639781-187.639781s84.197338-187.639781 187.639781-187.63978c103.442443 0 187.639781 84.197338 187.63978 187.63978s-84.197338 187.639781-187.63978 187.639781z m0-343.204385c-85.801096 0-155.564605 69.763508-155.564605 155.564604s69.763508 155.564605 155.564605 155.564605 155.564605-69.763508 155.564604-155.564605-69.763508-155.564605-155.564604-155.564604z" fill="#131313" /><path d="M486.973264 556.504307c-8.820673 0-16.037588-7.216915-16.037589-16.037588V505.184025c0-8.820673 7.216915-16.037588 16.037589-16.037588s16.037588 7.216915 16.037588 16.037588v35.282694c0 8.820673-7.216915 16.037588-16.037588 16.037588z" fill="#131313" /><path d="M486.973264 760.983555c-8.820673 0-16.037588-7.216915-16.037589-16.037588v-26.46202c0-8.820673 7.216915-16.037588 16.037589-16.037588s16.037588 7.216915 16.037588 16.037588v26.46202c0 8.820673-7.216915 16.037588-16.037588 16.037588z" fill="#131313" /><path d="M487.775143 730.512138c-25.660141 0-52.924041-9.622553-72.169146-34.480815-5.613156-7.216915-4.009397-16.839468 2.405638-22.452623 7.216915-5.613156 16.839468-4.009397 22.452623 2.405638 19.245106 24.858262 48.914644 25.660141 68.15975 19.245106 16.037588-5.613156 25.660141-16.037588 25.66014-27.2639 0-10.424432-24.858262-17.641347-46.509005-24.056382-33.678935-10.424432-76.178543-22.452623-76.178543-62.546593 0-19.245106 12.028191-36.886453 32.877055-47.310885 25.660141-12.83007 68.961629-17.641347 109.857479 12.028191 7.216915 5.613156 8.820673 15.235709 3.207517 22.452623-5.613156 7.216915-15.235709 8.820673-22.452623 3.207518-27.2639-20.046985-57.735317-19.245106-76.178544-9.622553-9.622553 4.811276-16.037588 12.028191-16.037588 19.245106 0 15.235709 22.452623 22.452623 52.924041 32.075176 32.877056 9.622553 68.961629 20.848865 68.961629 54.527799 0 24.858262-18.443226 47.310885-47.310885 57.735317-8.018794 3.207518-18.443226 4.811276-29.669538 4.811277z" fill="#131313" /><path d="M810.932543 526.834769m-34.480814 0a34.480814 34.480814 0 1 0 68.961629 0 34.480814 34.480814 0 1 0-68.961629 0Z" fill="#7D8792" /><path d="M810.932543 577.353171c-28.065779 0-50.518403-22.452623-50.518402-50.518402s22.452623-50.518403 50.518402-50.518403 50.518403 22.452623 50.518403 50.518403-22.452623 50.518403-50.518403 50.518402z m0-68.961628c-10.424432 0-18.443226 8.018794-18.443226 18.443226 0 10.424432 8.018794 18.443226 18.443226 18.443226s18.443226-8.018794 18.443226-18.443226c0-10.424432-8.018794-18.443226-18.443226-18.443226z" fill="#131313" /></svg>