<?xml version="1.0" encoding="utf-8"?>
<!-- Uploaded to: SVG Repo, www.svgrepo.com, Generator: SVG Repo Mixer Tools -->
<svg width="800px" height="800px" viewBox="-4 0 256 256" xmlns="http://www.w3.org/2000/svg" xmlns:xlink="http://www.w3.org/1999/xlink" preserveAspectRatio="xMidYMid">
  <defs>
    <style>

      .cls-3 {
        fill: #1c8cea;
      }

      .cls-5 {
        fill: #ff0078;
      }

      .cls-6 {
        fill: #b6cdd5;
      }
    </style>
  </defs>
  <g id="roller-skates">
    <path d="M210.000,256.000 C189.013,256.000 172.000,238.987 172.000,218.000 C172.000,197.013 189.013,180.000 210.000,180.000 C230.987,180.000 248.000,197.013 248.000,218.000 C248.000,238.987 230.987,256.000 210.000,256.000 ZM210.000,208.000 C204.477,208.000 200.000,212.477 200.000,218.000 C200.000,223.523 204.477,228.000 210.000,228.000 C215.523,228.000 220.000,223.523 220.000,218.000 C220.000,212.477 215.523,208.000 210.000,208.000 ZM124.000,256.000 C103.013,256.000 86.000,238.987 86.000,218.000 C86.000,197.013 103.013,180.000 124.000,180.000 C144.987,180.000 162.000,197.013 162.000,218.000 C162.000,238.987 144.987,256.000 124.000,256.000 ZM124.000,208.000 C118.477,208.000 114.000,212.477 114.000,218.000 C114.000,223.523 118.477,228.000 124.000,228.000 C129.523,228.000 134.000,223.523 134.000,218.000 C134.000,212.477 129.523,208.000 124.000,208.000 ZM38.000,256.000 C17.013,256.000 -0.000,238.987 -0.000,218.000 C-0.000,197.013 17.013,180.000 38.000,180.000 C58.987,180.000 76.000,197.013 76.000,218.000 C76.000,238.987 58.987,256.000 38.000,256.000 ZM38.000,208.000 C32.477,208.000 28.000,212.477 28.000,218.000 C28.000,223.523 32.477,228.000 38.000,228.000 C43.523,228.000 48.000,223.523 48.000,218.000 C48.000,212.477 43.523,208.000 38.000,208.000 Z" id="path-1" class="cls-3" fill-rule="evenodd"/>
    <path d="M24.587,103.581 C24.587,103.581 37.000,16.000 37.000,16.000 C37.000,7.163 44.163,-0.000 53.000,-0.000 C53.000,-0.000 106.000,-0.000 106.000,-0.000 C114.836,-0.000 122.000,7.163 122.000,16.000 C122.000,16.000 118.073,65.875 118.073,65.875 C118.073,65.875 24.587,103.581 24.587,103.581 Z" id="path-2" class="cls-3" fill-rule="evenodd"/>
    <path d="M237.000,140.000 C237.000,157.673 222.333,172.000 205.000,172.000 C187.666,172.000 43.000,172.000 43.000,172.000 C25.327,172.000 11.000,157.673 11.000,140.000 C11.000,140.000 15.000,116.000 15.000,116.000 C15.000,116.000 114.000,76.000 114.000,76.000 C124.485,73.095 131.053,77.006 135.101,78.777 C135.101,78.777 217.144,110.392 217.144,110.392 C228.794,115.175 237.000,126.627 237.000,140.000 Z" id="path-3" class="cls-5" fill-rule="evenodd"/>
    <path d="M110.595,126.616 C110.595,126.616 132.032,76.803 132.032,76.803 C133.786,72.748 138.495,70.883 142.550,72.636 C142.550,72.636 159.071,79.782 159.071,79.782 C163.126,81.536 164.992,86.245 163.238,90.300 C163.238,90.300 141.801,140.113 141.801,140.113 C140.047,144.168 135.338,146.034 131.283,144.280 C131.283,144.280 114.762,137.135 114.762,137.135 C110.707,135.381 108.841,130.671 110.595,126.616 Z" id="path-4" class="cls-6" fill-rule="evenodd"/>
    <path d="M65.000,19.000 C65.000,19.000 121.000,19.000 121.000,19.000 C125.418,19.000 129.000,22.572 129.000,26.978 C129.000,26.978 127.000,44.440 127.000,44.440 C127.000,48.846 123.418,52.418 119.000,52.418 C119.000,52.418 62.000,52.418 62.000,52.418 C57.582,52.418 54.000,48.846 54.000,44.440 C54.000,44.440 57.000,26.978 57.000,26.978 C57.000,22.572 60.582,19.000 65.000,19.000 Z" id="path-5" class="cls-5" fill-rule="evenodd"/>
  </g>
</svg>