<?xml version="1.0" encoding="utf-8"?>
<!-- Uploaded to: SVG Repo, www.svgrepo.com, Generator: SVG Repo Mixer Tools -->
<svg width="800px" height="800px" viewBox="0 -2.5 244 244" xmlns="http://www.w3.org/2000/svg" xmlns:xlink="http://www.w3.org/1999/xlink" preserveAspectRatio="xMidYMid">
  <defs>
    <style>

      .cls-3 {
        fill: #98e4e7;
      }

      .cls-4 {
        fill: #82f4f8;
      }

      .cls-5 {
        fill: #ffffff;
      }

      .cls-6 {
        fill: #ffda2f;
      }

      .cls-7 {
        fill: #4762e1;
      }
    </style>
  </defs>
  <g id="scales">
    <path d="M231.469,195.000 C228.068,212.826 219.146,229.855 199.646,234.355 C174.482,240.162 69.455,240.162 44.290,234.355 C24.791,229.855 15.869,212.826 12.469,195.000 C9.603,179.974 -2.489,97.041 0.468,73.000 C3.024,52.225 14.795,41.000 32.468,41.000 C32.468,41.000 61.383,41.000 61.383,41.000 C71.237,16.948 94.868,-0.000 122.468,-0.000 C150.069,-0.000 173.700,16.948 183.554,41.000 C183.554,41.000 211.468,41.000 211.468,41.000 C229.142,41.000 240.913,52.225 243.469,73.000 C246.426,97.041 234.334,179.974 231.469,195.000 Z" id="path-1" class="cls-3" fill-rule="evenodd"/>
    <path d="M212.469,200.000 C207.815,209.782 197.968,217.500 189.468,219.000 C180.968,220.500 152.990,222.446 144.468,222.000 C136.480,221.582 130.468,216.836 130.468,208.000 C130.468,208.000 132.689,186.122 134.468,166.000 C135.448,154.930 139.914,147.545 149.015,144.642 C182.012,134.115 205.468,102.553 205.468,66.000 C205.468,58.133 213.660,58.576 216.295,59.272 C220.401,60.356 222.748,62.754 224.468,66.000 C227.153,71.064 227.358,78.112 227.468,84.000 C227.674,94.918 220.679,182.739 212.469,200.000 ZM100.468,222.000 C91.947,222.446 63.968,220.500 55.468,219.000 C46.969,217.500 37.122,209.782 32.468,200.000 C24.258,182.739 17.263,94.918 17.469,84.000 C17.579,78.112 17.785,71.064 20.468,66.000 C22.189,62.754 24.536,60.356 28.642,59.272 C31.277,58.576 39.468,58.133 39.468,66.000 C39.468,102.553 62.925,134.115 95.922,144.642 C105.023,147.545 109.489,154.930 110.468,166.000 C112.248,186.122 114.468,208.000 114.468,208.000 C114.468,216.836 108.457,221.582 100.468,222.000 Z" id="path-2" class="cls-4" fill-rule="evenodd"/>
    <circle id="circle-1" class="cls-5" cx="122" cy="66" r="49"/>
    <path d="M152.299,94.111 C152.299,94.111 146.642,88.454 146.642,88.454 C152.116,82.564 155.469,74.675 155.469,66.000 C155.469,47.774 140.694,33.000 122.468,33.000 C104.243,33.000 89.469,47.774 89.469,66.000 C89.469,74.930 93.021,83.025 98.783,88.966 C98.783,88.966 93.126,94.623 93.126,94.623 C85.917,87.234 81.469,77.139 81.469,66.000 C81.469,43.356 99.825,25.000 122.468,25.000 C145.112,25.000 163.469,43.356 163.469,66.000 C163.469,76.884 159.219,86.770 152.299,94.111 Z" id="path-3" class="cls-6" fill-rule="evenodd"/>
    <path d="M151.460,42.665 C151.460,42.665 133.289,60.837 133.289,60.837 C134.037,62.402 134.469,64.149 134.469,66.000 C134.469,72.627 129.096,78.000 122.468,78.000 C115.841,78.000 110.468,72.627 110.468,66.000 C110.468,59.372 115.841,54.000 122.468,54.000 C124.320,54.000 126.066,54.431 127.632,55.180 C127.632,55.180 145.803,37.008 145.803,37.008 C147.365,35.446 149.898,35.446 151.460,37.008 C153.022,38.570 153.022,41.103 151.460,42.665 Z" id="path-4" class="cls-7" fill-rule="evenodd"/>
  </g>
</svg>