<?xml version="1.0" encoding="iso-8859-1"?>

<!DOCTYPE svg PUBLIC "-//W3C//DTD SVG 1.1//EN" "http://www.w3.org/Graphics/SVG/1.1/DTD/svg11.dtd">
<!-- Uploaded to: SVG Repo, www.svgrepo.com, Generator: SVG Repo Mixer Tools -->
<svg height="800px" width="800px" version="1.1" id="_x35_" xmlns="http://www.w3.org/2000/svg" xmlns:xlink="http://www.w3.org/1999/xlink" 
	 viewBox="0 0 512 512"  xml:space="preserve">
<g>
	<path style="fill:none;" d="M311.055,213.861h0.001l15.604-15.605c-2.475-1.741-4.861-3.667-7.074-5.882l-16.741,16.74
		L311.055,213.861z"/>
	<path style="fill:none;" d="M298.098,200.906l4.745,8.209h0.002l16.741-16.74c-2.214-2.215-4.141-4.599-5.883-7.075
		L298.098,200.906z"/>
	<path style="fill:#E6BAB0;" d="M428.648,88.221c0.037-0.037,0.074-0.073,0.112-0.11v-0.002
		C428.723,88.148,428.686,88.185,428.648,88.221z"/>
	<g>
		<g>
			<g>
				<path style="fill:#EDEDEC;" d="M401.81,197.77l-93.327,93.327l-22.944-22.944c2.716-5.634,4.799-10.389,6.332-14.082
					l-9.677-5.295l7.319-13.37l45.647-45.647L401.81,197.77z"/>
				<path style="fill:#EDEDEC;" d="M322.203,176.801l-45.647,45.647l-13.37,7.319l-5.295-9.676
					c-3.689,1.537-8.444,3.62-14.083,6.331l-22.944-22.944l93.327-93.327L322.203,176.801z"/>
			</g>
			<g>
				<path style="fill:#F6F5F5;" d="M492.974,12.992c-0.555,0.791-1.188,1.584-1.981,2.456c-2.298,2.772-15.369,15.924-19.965,20.518
					c-7.288-7.288-22.816-3.644-34.621,8.16c-11.804,11.804-15.369,27.252-8.081,34.622c-1.505,1.505-3.089,3.01-4.595,4.596
					c0.079-0.081,0.079-0.081,0.079-0.159c-3.407-3.408-10.616-1.745-16.162,3.803c-5.546,5.545-7.209,12.833-3.802,16.239
					c-4.357,4.358-8.318,8.319-11.567,11.566c-6.813,6.814-10.933,10.934-10.933,10.934l-9.428,2.615l-40.8,11.487l-12.993,3.565
					l-13.547,3.803l-32.323,9.112l-5.942,1.663l-10.537,2.93L371.524,45.157L482.596,2.613L489.409,0
					C494.638,5.228,497.252,6.891,492.974,12.992z"/>
				<path style="fill:#F6F5F5;" d="M467.864,75.53c11.8-11.8,15.428-27.303,8.105-34.627c4.605-4.601,17.809-17.675,20.525-19.956
					c8.15-6.842,9.638-4.262,15.507,1.607L466.81,140.44L351.098,256.152l35.127-125.506c0,0,9.074-9.074,22.524-22.524
					c3.43,3.43,10.69,1.731,16.216-3.795c5.526-5.526,7.225-12.786,3.795-16.215c-0.038,0.038-0.074,0.074-0.112,0.112
					c1.526-1.526,3.057-3.057,4.588-4.588C440.56,90.959,456.064,87.33,467.864,75.53z"/>
			</g>
			<g>
				<circle style="fill:#D4D4D4;" cx="357.239" cy="154.722" r="53.249"/>
				<circle style="fill:#F6F5F5;" cx="357.239" cy="154.722" r="30.143"/>
			</g>
			<g>
				<g>
					<path style="fill:#E3A89C;" d="M240.989,441.63c-33.605,29.951-63.469,46.729-106.162,67.26
						c-12.865,6.184-28.594,2.609-38.987-7.784c-2.476-2.485-4.656-5.355-6.419-8.573c-9.135-16.702-3.622-36.45,12.319-44.118
						c84.069-40.422,125.287-86.503,152.46-125.435c15.095-21.638,25.039-40.914,31.169-54.658
						c2.357-5.274,4.144-9.734,5.452-13.202c1.764-4.672,2.648-7.541,2.835-8.17l43.414,15.559l20.825,7.468
						c-0.194,0.695-2.249,7.976-7.061,19.852c-6.776,16.698-18.997,42.486-39.135,71.81
						C291.771,390.651,267.978,417.568,240.989,441.63z"/>
				</g>
				<g>
					<path style="fill:#E3A89C;" d="M265.127,218.26l-0.079,0.079c-0.475,0.159-2.852,0.872-6.813,2.298
						c-0.475,0.159-0.951,0.317-1.426,0.476c-3.407,1.346-7.922,3.089-13.151,5.466c-13.785,6.18-33.036,16.083-54.664,31.214
						c-38.978,27.173-85.007,68.371-125.411,152.426c-7.447,15.45-26.223,21.154-42.622,13.073c-0.475-0.159-1.03-0.476-1.505-0.714
						c-3.248-1.822-6.1-3.961-8.635-6.495c-3.011-3.012-5.388-6.418-7.13-10.061c-4.516-9.112-5.07-19.729-0.634-28.918
						c20.519-42.701,37.315-72.489,67.261-106.159c24.084-26.937,51.02-50.784,80.016-70.669
						c29.313-20.123,55.139-32.401,71.777-39.136c11.883-4.832,19.172-6.893,19.885-7.05l7.447,20.756v0.079l15.607,43.335
						C265.127,218.26,265.127,218.26,265.127,218.26z"/>
				</g>
				<path style="opacity:0.1;fill:#040000;" d="M265.127,218.26c0,0,0,0-0.079,0l-15.607-43.335v-0.079l-7.447-20.756
					c-0.713,0.157-8.002,2.218-19.885,7.05c-3.756,1.52-8.039,3.367-12.667,5.479l0.783,1.337l15.052,25.986l18.799,32.457
					c5.038-2.273,9.424-3.979,12.732-5.286c0.475-0.159,0.951-0.317,1.426-0.476c3.961-1.426,6.338-2.139,6.813-2.298
					L265.127,218.26z"/>
				<path style="fill:#E3A89C;" d="M303.154,209.626l-1.663,0.791l-26.699,13.785l-12.438,6.418l-5.546-9.506l-0.238-0.476
					l-19.41-33.512l-15.052-25.986l-1.347-2.298c-2.535-4.514-1.189-9.903,3.01-12.042l33.194-17.112l11.012,19.015l2.773,4.832
					v0.079l1.505,2.694l25.827,44.602l4.754,8.24L303.154,209.626z"/>
				<path style="opacity:0.1;fill:#040000;" d="M357.895,269.976l-20.825-7.468l-43.414-15.559c-0.188,0.629-1.071,3.497-2.836,8.17
					c-1.147,3.042-2.741,6.969-4.688,11.419l0.873,0.505l33.983,19.655l24.971,14.441c1.84-4.085,3.502-7.928,4.875-11.311
					C355.646,277.952,357.701,270.67,357.895,269.976z"/>
				<path style="fill:#E3A89C;" d="M353.161,291.175l-2.326-1.348l-26.031-15.052l-33.982-19.655l-9.488-5.484l6.427-12.478
					l13.768-26.726l0.824-1.6l0.491,0.285l8.211,4.746l47.304,27.357l23.883,13.811l-17.064,33.126
					C363.004,292.383,357.596,293.734,353.161,291.175z"/>
			</g>
		</g>
		<path style="opacity:0.05;fill:#040000;" d="M496.493,20.947c-2.716,2.28-15.92,15.353-20.525,19.957
			c7.324,7.323,3.695,22.827-8.105,34.626c-11.8,11.8-27.303,15.429-34.627,8.104c-1.494,1.493-2.988,2.988-4.476,4.478
			c3.43,3.429,1.731,10.688-3.795,16.214c-5.526,5.526-12.786,7.226-16.216,3.795c-4.383,4.383-8.237,8.238-11.528,11.528
			c-0.763-0.867-1.502-1.749-2.331-2.578l-75.305,75.305c2.214,2.215,4.599,4.141,7.074,5.882l-15.604,15.605h-0.001l-8.21-4.746
			l-1.32,1.321l-13.766,26.721l-6.427,12.479l9.488,5.483c-1.307,3.468-3.095,7.928-5.452,13.203
			c-6.131,13.744-16.074,33.02-31.169,54.658c-27.174,38.931-68.391,85.013-152.46,125.435
			c-15.941,7.669-21.454,27.417-12.319,44.118c1.763,3.218,3.942,6.089,6.419,8.572c10.394,10.394,26.123,13.969,38.988,7.785
			c42.694-20.531,72.557-37.31,106.162-67.261c26.989-24.061,50.782-50.979,70.71-79.993c20.139-29.324,32.359-55.11,39.136-71.808
			l2.326,1.346c4.436,2.561,9.844,1.209,12.017-3.017l17.064-33.127l-19.022-11l103.59-103.59L512,22.552
			C506.131,16.684,504.643,14.104,496.493,20.947z"/>
	</g>
</g>
</svg>