<?xml version="1.0" encoding="utf-8"?>
<!-- Uploaded to: SVG Repo, www.svgrepo.com, Generator: SVG Repo Mixer Tools -->
<svg width="800px" height="800px" viewBox="-29.5 0 256 256" xmlns="http://www.w3.org/2000/svg" xmlns:xlink="http://www.w3.org/1999/xlink" preserveAspectRatio="xMidYMid">
  <defs>
    <style>

      .cls-3 {
        fill: url(#linear-gradient-1);
      }

      .cls-4 {
        fill: #d9e7eb;
      }

      .cls-5 {
        fill: #b6cdd5;
      }

      .cls-6 {
        fill: #fce202;
      }
    </style>

    <linearGradient id="linear-gradient-1" gradientUnits="userSpaceOnUse" x1="98" y1="179" x2="98" y2="0">
      <stop offset="0" stop-color="#c5d1d5"/>
      <stop offset="1" stop-color="#d9e7eb"/>
    </linearGradient>
  </defs>
  <g id="weightsvg">
    <path d="M196.094,54.000 C194.094,86.000 173.094,179.000 173.094,179.000 C173.094,179.000 23.094,179.000 23.094,179.000 C23.094,179.000 2.094,86.000 0.094,54.000 C-1.906,22.000 24.270,-0.000 54.093,-0.000 C54.093,-0.000 142.094,-0.000 142.094,-0.000 C171.917,-0.000 198.094,22.000 196.094,54.000 ZM139.094,31.000 C139.094,31.000 57.094,31.000 57.094,31.000 C39.420,31.000 29.645,44.365 34.094,60.000 C36.863,69.734 41.094,85.000 41.094,85.000 C43.594,91.270 48.257,98.000 57.094,98.000 C57.094,98.000 139.094,98.000 139.094,98.000 C147.930,98.000 152.594,91.270 155.094,85.000 C155.094,85.000 159.324,69.734 162.094,60.000 C166.543,44.365 156.767,31.000 139.094,31.000 Z" id="path-1" class="cls-3" fill-rule="evenodd"/>
    <path d="M176.217,207.679 C170.508,206.732 158.969,204.279 151.134,199.002 C138.107,190.230 130.734,170.442 130.734,170.442 C130.734,170.442 123.594,148.002 98.094,148.002 C72.594,148.002 65.454,170.442 65.454,170.442 C65.454,170.442 58.080,190.230 45.054,199.002 C37.218,204.279 25.679,206.732 19.970,207.679 C16.136,197.290 14.094,185.883 14.094,174.000 C14.094,127.608 51.702,90.000 98.094,90.000 C144.485,90.000 182.093,127.608 182.093,174.000 C182.093,185.883 180.051,197.290 176.217,207.679 Z" id="path-2" class="cls-4" fill-rule="evenodd"/>
    <path d="M45.054,199.002 C58.080,190.230 65.454,170.442 65.454,170.442 C65.454,170.442 72.594,148.002 98.094,148.002 C123.594,148.002 130.734,170.442 130.734,170.442 C130.734,170.442 138.107,190.230 151.134,199.002 C158.568,204.008 170.224,206.470 176.276,207.518 C168.487,228.743 153.189,245.720 132.272,253.717 C128.767,255.057 121.294,256.000 121.294,256.000 C121.294,256.000 74.893,256.000 74.893,256.000 C74.893,256.000 67.420,255.057 63.915,253.717 C42.998,245.720 27.700,228.743 19.911,207.518 C25.963,206.470 37.619,204.008 45.054,199.002 Z" id="path-3" class="cls-5" fill-rule="evenodd"/>
    <circle id="circle-1" class="cls-6" cx="98" cy="182" r="25"/>
  </g>
</svg>